<?xml version="1.0" encoding="UTF-8" standalone="no"?><svg xmlns="http://www.w3.org/2000/svg" xmlns:xlink="http://www.w3.org/1999/xlink" contentScriptType="application/ecmascript" contentStyleType="text/css" height="1023px" preserveAspectRatio="none" style="width:843px;height:1023px;background:#FFFFFF;" version="1.1" viewBox="0 0 843 1023" width="843px" zoomAndPan="magnify"><defs><filter height="300%" id="fm8zxr4xfk5v" width="300%" x="-1" y="-1"><feGaussianBlur result="blurOut" stdDeviation="2.0"/><feColorMatrix in="blurOut" result="blurOut2" type="matrix" values="0 0 0 0 0 0 0 0 0 0 0 0 0 0 0 0 0 0 .4 0"/><feOffset dx="4.0" dy="4.0" in="blurOut2" result="blurOut3"/><feBlend in="SourceGraphic" in2="blurOut3" mode="normal"/></filter></defs><g><path d="M450.5,10 L450.5,26.6 L430.5,30.6 L450.5,34.6 L450.5,51.2 A0,0 0 0 0 450.5,51.2 L688.5,51.2 A0,0 0 0 0 688.5,51.2 L688.5,20 L678.5,10 L450.5,10 A0,0 0 0 0 450.5,10 " fill="#EBEBEB" filter="url(#fm8zxr4xfk5v)" style="stroke:#383838;stroke-width:1.0;"/><path d="M678.5,10 L678.5,20 L688.5,20 L678.5,10 " fill="#EBEBEB" style="stroke:#383838;stroke-width:1.0;"/><text fill="#000000" font-family="sans-serif" font-size="13" lengthAdjust="spacing" textLength="217" x="456.5" y="28">I have this piece of documentation and</text><text fill="#000000" font-family="sans-serif" font-size="13" lengthAdjust="spacing" textLength="146" x="492" y="43.6">don't know where to put it.</text><ellipse cx="420.5" cy="30.6" fill="#000000" filter="url(#fm8zxr4xfk5v)" rx="10" ry="10" style="stroke:none;stroke-width:1.0;"/><path d="M472,95.2 L472,127.4001 L452,131.4001 L472,135.4001 L472,167.6001 A0,0 0 0 0 472,167.6001 L821,167.6001 A0,0 0 0 0 821,167.6001 L821,105.2 L811,95.2 L472,95.2 A0,0 0 0 0 472,95.2 " fill="#EBEBEB" filter="url(#fm8zxr4xfk5v)" style="stroke:#383838;stroke-width:1.0;"/><path d="M811,95.2 L811,105.2 L821,105.2 L811,95.2 " fill="#EBEBEB" style="stroke:#383838;stroke-width:1.0;"/><text fill="#000000" font-family="sans-serif" font-size="13" lengthAdjust="spacing" textLength="254" x="515" y="113.2">Customer or contract specific documentation</text><text fill="#000000" font-family="sans-serif" font-size="13" lengthAdjust="spacing" textLength="298" x="493" y="128.8001">should either become a (generic) system requirement</text><text fill="#000000" font-family="sans-serif" font-size="13" font-style="italic" lengthAdjust="spacing" textLength="11" x="517" y="144.4001">or</text><text fill="#000000" font-family="sans-serif" font-size="13" lengthAdjust="spacing" textLength="236" x="531" y="144.4001">be documented in a dedicated location for</text><text fill="#000000" font-family="sans-serif" font-size="13" lengthAdjust="spacing" textLength="328" x="478" y="160.0001">customer requirements, e.g. a dedicated Antora repository.</text><rect fill="#A9A9A9" filter="url(#fm8zxr4xfk5v)" height="34.4001" rx="12.5" ry="12.5" style="stroke:#383838;stroke-width:1.5;" width="105" x="347" y="114.2"/><text fill="#000000" font-family="sans-serif" font-size="12" lengthAdjust="spacing" textLength="85" x="357" y="136.2001">Somewhere else</text><path d="M551.5,211.6001 L551.5,243.8001 L531.5,247.8001 L551.5,251.8001 L551.5,284.0001 A0,0 0 0 0 551.5,284.0001 L792.5,284.0001 A0,0 0 0 0 792.5,284.0001 L792.5,221.6001 L782.5,211.6001 L551.5,211.6001 A0,0 0 0 0 551.5,211.6001 " fill="#EBEBEB" filter="url(#fm8zxr4xfk5v)" style="stroke:#383838;stroke-width:1.0;"/><path d="M782.5,211.6001 L782.5,221.6001 L792.5,221.6001 L782.5,211.6001 " fill="#EBEBEB" style="stroke:#383838;stroke-width:1.0;"/><text fill="#000000" font-family="sans-serif" font-size="13" lengthAdjust="spacing" textLength="118" x="570.5" y="229.6001">Only put things in the</text><text fill="#000000" font-family="sans-serif" font-size="13" font-style="italic" lengthAdjust="spacing" textLength="73" x="691.5" y="229.6001">system-as-is</text><text fill="#000000" font-family="sans-serif" font-size="13" font-style="italic" lengthAdjust="spacing" textLength="83" x="564" y="245.2001">documentation</text><text fill="#000000" font-family="sans-serif" font-size="13" lengthAdjust="spacing" textLength="121" x="650" y="245.2001">when they are mature</text><text fill="#000000" font-family="sans-serif" font-size="13" lengthAdjust="spacing" textLength="220" x="557.5" y="260.8001">and reliable enough to be of actual help</text><text fill="#000000" font-family="sans-serif" font-size="13" lengthAdjust="spacing" textLength="74" x="630.5" y="276.4001">to the reader.</text><rect fill="#BCBCBC" filter="url(#fm8zxr4xfk5v)" height="34.4001" rx="12.5" ry="12.5" style="stroke:#383838;stroke-width:1.5;" width="156" x="375.5" y="230.6001"/><text fill="#000000" font-family="sans-serif" font-size="12" lengthAdjust="spacing" textLength="136" x="385.5" y="252.6001">Day-to-day documentation</text><path d="M545.5,328.0001 L545.5,360.2002 L525.5,364.2002 L545.5,368.2002 L545.5,400.4002 A0,0 0 0 0 545.5,400.4002 L798.5,400.4002 A0,0 0 0 0 798.5,400.4002 L798.5,338.0001 L788.5,328.0001 L545.5,328.0001 A0,0 0 0 0 545.5,328.0001 " fill="#EBEBEB" filter="url(#fm8zxr4xfk5v)" style="stroke:#383838;stroke-width:1.0;"/><path d="M788.5,328.0001 L788.5,338.0001 L798.5,338.0001 L788.5,328.0001 " fill="#EBEBEB" style="stroke:#383838;stroke-width:1.0;"/><text fill="#000000" font-family="sans-serif" font-size="13" lengthAdjust="spacing" textLength="232" x="551.5" y="346.0001">Although events documentation, meeting</text><text fill="#000000" font-family="sans-serif" font-size="13" lengthAdjust="spacing" textLength="185" x="575" y="361.6002">protocols, analyses results, .. can</text><text fill="#000000" font-family="sans-serif" font-size="13" lengthAdjust="spacing" textLength="224" x="555.5" y="377.2002">describe observed and expected system</text><text fill="#000000" font-family="sans-serif" font-size="13" lengthAdjust="spacing" textLength="219" x="558" y="392.8002">behavior, they should be kept separate.</text><rect fill="#BCBCBC" filter="url(#fm8zxr4xfk5v)" height="34.4001" rx="12.5" ry="12.5" style="stroke:#383838;stroke-width:1.5;" width="156" x="369.5" y="347.0001"/><text fill="#000000" font-family="sans-serif" font-size="12" lengthAdjust="spacing" textLength="136" x="379.5" y="369.0002">Day-to-day documentation</text><path d="M544.5,444.4002 L544.5,468.8002 L524.5,472.8002 L544.5,476.8002 L544.5,501.2002 A0,0 0 0 0 544.5,501.2002 L799.5,501.2002 A0,0 0 0 0 799.5,501.2002 L799.5,454.4002 L789.5,444.4002 L544.5,444.4002 A0,0 0 0 0 544.5,444.4002 " fill="#EBEBEB" filter="url(#fm8zxr4xfk5v)" style="stroke:#383838;stroke-width:1.0;"/><path d="M789.5,444.4002 L789.5,454.4002 L799.5,454.4002 L789.5,444.4002 " fill="#EBEBEB" style="stroke:#383838;stroke-width:1.0;"/><text fill="#000000" font-family="sans-serif" font-size="13" lengthAdjust="spacing" textLength="234" x="550.5" y="462.4002">Ideas and plans change and evolve, many</text><text fill="#000000" font-family="sans-serif" font-size="13" lengthAdjust="spacing" textLength="210" x="562.5" y="478.0002">will never make it to the system or are</text><text fill="#000000" font-family="sans-serif" font-size="13" lengthAdjust="spacing" textLength="136" x="599.5" y="493.6002">implemented differently.</text><rect fill="#BCBCBC" filter="url(#fm8zxr4xfk5v)" height="34.4001" rx="12.5" ry="12.5" style="stroke:#383838;stroke-width:1.5;" width="156" x="368.5" y="455.6002"/><text fill="#000000" font-family="sans-serif" font-size="12" lengthAdjust="spacing" textLength="136" x="378.5" y="477.6002">Day-to-day documentation</text><path d="M553.5,545.2002 L553.5,593.0003 L533.5,597.0003 L553.5,601.0003 L553.5,648.8003 A0,0 0 0 0 553.5,648.8003 L790.5,648.8003 A0,0 0 0 0 790.5,648.8003 L790.5,555.2002 L780.5,545.2002 L553.5,545.2002 A0,0 0 0 0 553.5,545.2002 " fill="#EBEBEB" filter="url(#fm8zxr4xfk5v)" style="stroke:#383838;stroke-width:1.0;"/><path d="M780.5,545.2002 L780.5,555.2002 L790.5,555.2002 L780.5,545.2002 " fill="#EBEBEB" style="stroke:#383838;stroke-width:1.0;"/><text fill="#000000" font-family="sans-serif" font-size="13" lengthAdjust="spacing" textLength="210" x="562.5" y="563.2002">Even if there is a high confidence that</text><text fill="#000000" font-family="sans-serif" font-size="13" font-style="italic" lengthAdjust="spacing" textLength="172" x="579.5" y="578.8003">this is the way it is going to be</text><text fill="#000000" font-family="sans-serif" font-size="13" lengthAdjust="spacing" textLength="4" x="751.5" y="578.8003">,</text><text fill="#000000" font-family="sans-serif" font-size="13" lengthAdjust="spacing" textLength="216" x="559.5" y="594.4003">as long as code and documentation di-</text><text fill="#000000" font-family="sans-serif" font-size="13" lengthAdjust="spacing" textLength="132" x="569.5" y="610.0003">verge it should be put in</text><text fill="#000000" font-family="sans-serif" font-size="13" font-style="italic" lengthAdjust="spacing" textLength="58" x="704.5" y="610.0003">day-to-day</text><text fill="#000000" font-family="sans-serif" font-size="13" lengthAdjust="spacing" textLength="3" x="762.5" y="610.0003">.</text><text fill="#000000" font-family="sans-serif" font-size="13" lengthAdjust="spacing" textLength="115" x="565" y="625.6003">Teams can agree on</text><text fill="#000000" font-family="sans-serif" font-size="13" font-weight="bold" lengthAdjust="spacing" textLength="69" x="683" y="625.6003">exceptions</text><text fill="#000000" font-family="sans-serif" font-size="13" lengthAdjust="spacing" textLength="15" x="755" y="625.6003">for</text><text fill="#000000" font-family="sans-serif" font-size="13" font-weight="bold" lengthAdjust="spacing" textLength="145" x="593.5" y="641.2003">development branches</text><text fill="#000000" font-family="sans-serif" font-size="13" lengthAdjust="spacing" textLength="3" x="738.5" y="641.2003">.</text><rect fill="#BCBCBC" filter="url(#fm8zxr4xfk5v)" height="34.4001" rx="12.5" ry="12.5" style="stroke:#383838;stroke-width:1.5;" width="156" x="377.5" y="579.8002"/><text fill="#000000" font-family="sans-serif" font-size="12" lengthAdjust="spacing" textLength="136" x="387.5" y="601.8003">Day-to-day documentation</text><path d="M547,692.8003 L547,717.2003 L527,721.2003 L547,725.2003 L547,749.6004 A0,0 0 0 0 547,749.6004 L808,749.6004 A0,0 0 0 0 808,749.6004 L808,702.8003 L798,692.8003 L547,692.8003 A0,0 0 0 0 547,692.8003 " fill="#EBEBEB" filter="url(#fm8zxr4xfk5v)" style="stroke:#383838;stroke-width:1.0;"/><path d="M798,692.8003 L798,702.8003 L808,702.8003 L798,692.8003 " fill="#EBEBEB" style="stroke:#383838;stroke-width:1.0;"/><text fill="#000000" font-family="sans-serif" font-size="13" lengthAdjust="spacing" textLength="179" x="553" y="710.8003">Moving mature documents from</text><text fill="#000000" font-family="sans-serif" font-size="13" font-style="italic" lengthAdjust="spacing" textLength="58" x="735" y="710.8003">day-to-day</text><text fill="#000000" font-family="sans-serif" font-size="13" lengthAdjust="spacing" textLength="42" x="570" y="726.4003">into the</text><text fill="#000000" font-family="sans-serif" font-size="13" font-style="italic" lengthAdjust="spacing" textLength="73" x="615" y="726.4003">system-as-is</text><text fill="#000000" font-family="sans-serif" font-size="13" lengthAdjust="spacing" textLength="85" x="691" y="726.4003">documentation</text><text fill="#000000" font-family="sans-serif" font-size="13" lengthAdjust="spacing" textLength="143" x="601.5" y="742.0004">is the recommended way.</text><rect fill="#757575" filter="url(#fm8zxr4xfk5v)" height="34.4001" rx="12.5" ry="12.5" style="stroke:#383838;stroke-width:1.5;" width="167" x="360" y="704.0003"/><text fill="#000000" font-family="sans-serif" font-size="12" lengthAdjust="spacing" textLength="147" x="370" y="726.0004">System-as-is documentation</text><path d="M551.5,793.6004 L551.5,825.8004 L531.5,829.8004 L551.5,833.8004 L551.5,866.0004 A0,0 0 0 0 551.5,866.0004 L803.5,866.0004 A0,0 0 0 0 803.5,866.0004 L803.5,803.6004 L793.5,793.6004 L551.5,793.6004 A0,0 0 0 0 551.5,793.6004 " fill="#EBEBEB" filter="url(#fm8zxr4xfk5v)" style="stroke:#383838;stroke-width:1.0;"/><path d="M793.5,793.6004 L793.5,803.6004 L803.5,803.6004 L793.5,793.6004 " fill="#EBEBEB" style="stroke:#383838;stroke-width:1.0;"/><text fill="#000000" font-family="sans-serif" font-size="13" lengthAdjust="spacing" textLength="155" x="557.5" y="811.6004">Changing documentation in</text><text fill="#000000" font-family="sans-serif" font-size="13" font-style="italic" lengthAdjust="spacing" textLength="73" x="715.5" y="811.6004">system-as-is</text><text fill="#000000" font-family="sans-serif" font-size="13" lengthAdjust="spacing" textLength="215" x="565.5" y="827.2004">should adher to the same standards as</text><text fill="#000000" font-family="sans-serif" font-size="13" lengthAdjust="spacing" textLength="201" x="572.5" y="842.8004">code , e.g. peer reviewed in a merge</text><text fill="#000000" font-family="sans-serif" font-size="13" lengthAdjust="spacing" textLength="45" x="650.5" y="858.4004">request.</text><rect fill="#757575" filter="url(#fm8zxr4xfk5v)" height="34.4001" rx="12.5" ry="12.5" style="stroke:#383838;stroke-width:1.5;" width="167" x="364.5" y="812.6003"/><text fill="#000000" font-family="sans-serif" font-size="12" lengthAdjust="spacing" textLength="147" x="374.5" y="834.6004">System-as-is documentation</text><polygon fill="#F8F8F8" filter="url(#fm8zxr4xfk5v)" points="84.5,71.2,272.5,71.2,284.5,83.2,272.5,95.2,84.5,95.2,72.5,83.2,84.5,71.2" style="stroke:#383838;stroke-width:1.5;"/><text fill="#000000" font-family="sans-serif" font-size="11" lengthAdjust="spacing" textLength="188" x="84.5" y="87.6">This is a customer specific information?</text><text fill="#000000" font-family="sans-serif" font-size="11" lengthAdjust="spacing" textLength="16" x="284.5" y="81">yes</text><polygon fill="#F8F8F8" filter="url(#fm8zxr4xfk5v)" points="127.5,187.6001,229.5,187.6001,241.5,199.6001,229.5,211.6001,127.5,211.6001,115.5,199.6001,127.5,187.6001" style="stroke:#383838;stroke-width:1.5;"/><text fill="#000000" font-family="sans-serif" font-size="11" lengthAdjust="spacing" textLength="102" x="127.5" y="204">Is still in a draft state?</text><text fill="#000000" font-family="sans-serif" font-size="11" lengthAdjust="spacing" textLength="16" x="241.5" y="197.4001">yes</text><polygon fill="#F8F8F8" filter="url(#fm8zxr4xfk5v)" points="104,304.0001,253,304.0001,265,316.0001,253,328.0001,104,328.0001,92,316.0001,104,304.0001" style="stroke:#383838;stroke-width:1.5;"/><text fill="#000000" font-family="sans-serif" font-size="11" lengthAdjust="spacing" textLength="149" x="104" y="320.4001">Describes an event/protocol/..?</text><text fill="#000000" font-family="sans-serif" font-size="11" lengthAdjust="spacing" textLength="16" x="265" y="313.8002">yes</text><polygon fill="#F8F8F8" filter="url(#fm8zxr4xfk5v)" points="122.5,420.4002,234.5,420.4002,246.5,432.4002,234.5,444.4002,122.5,444.4002,110.5,432.4002,122.5,420.4002" style="stroke:#383838;stroke-width:1.5;"/><text fill="#000000" font-family="sans-serif" font-size="11" lengthAdjust="spacing" textLength="112" x="122.5" y="436.8002">An idea for the system?</text><text fill="#000000" font-family="sans-serif" font-size="11" lengthAdjust="spacing" textLength="16" x="246.5" y="430.2002">yes</text><polygon fill="#F8F8F8" filter="url(#fm8zxr4xfk5v)" points="67.5,521.2002,289.5,521.2002,301.5,533.2002,289.5,545.2002,67.5,545.2002,55.5,533.2002,67.5,521.2002" style="stroke:#383838;stroke-width:1.5;"/><text fill="#000000" font-family="sans-serif" font-size="11" lengthAdjust="spacing" textLength="155" x="67.5" y="537.6002">The planned architecture for the</text><text fill="#000000" font-family="sans-serif" font-size="11" font-style="italic" lengthAdjust="spacing" textLength="20" x="225.5" y="537.6002">next</text><text fill="#000000" font-family="sans-serif" font-size="11" lengthAdjust="spacing" textLength="41" x="248.5" y="537.6002">release?</text><text fill="#000000" font-family="sans-serif" font-size="11" lengthAdjust="spacing" textLength="16" x="301.5" y="531.0002">yes</text><polygon fill="#F8F8F8" filter="url(#fm8zxr4xfk5v)" points="32,668.8003,325,668.8003,337,680.8003,325,692.8003,32,692.8003,20,680.8003,32,668.8003" style="stroke:#383838;stroke-width:1.5;"/><text fill="#000000" font-family="sans-serif" font-size="11" lengthAdjust="spacing" textLength="175" x="32" y="685.2003">The planned architecture for release</text><text fill="#000000" font-family="sans-serif" font-size="11" font-style="italic" lengthAdjust="spacing" textLength="109" x="210" y="685.2003">has been implemented</text><text fill="#000000" font-family="sans-serif" font-size="11" lengthAdjust="spacing" textLength="6" x="319" y="685.2003">?</text><text fill="#000000" font-family="sans-serif" font-size="11" lengthAdjust="spacing" textLength="16" x="337" y="678.6003">yes</text><polygon fill="#F8F8F8" filter="url(#fm8zxr4xfk5v)" points="105.5,769.6004,251.5,769.6004,263.5,781.6004,251.5,793.6004,105.5,793.6004,93.5,781.6004,105.5,769.6004" style="stroke:#383838;stroke-width:1.5;"/><text fill="#000000" font-family="sans-serif" font-size="11" lengthAdjust="spacing" textLength="146" x="105.5" y="786.0003">Describes the current system?</text><text fill="#000000" font-family="sans-serif" font-size="11" lengthAdjust="spacing" textLength="16" x="263.5" y="779.4004">yes</text><path d="M420.5,890.4005 L420.5,899.2005 L400.5,903.2005 L420.5,907.2005 L420.5,916.0005 A0,0 0 0 0 420.5,916.0005 L596.5,916.0005 A0,0 0 0 0 596.5,916.0005 L596.5,900.4005 L586.5,890.4005 L420.5,890.4005 A0,0 0 0 0 420.5,890.4005 " fill="#EBEBEB" filter="url(#fm8zxr4xfk5v)" style="stroke:#383838;stroke-width:1.0;"/><path d="M586.5,890.4005 L586.5,900.4005 L596.5,900.4005 L586.5,890.4005 " fill="#EBEBEB" style="stroke:#383838;stroke-width:1.0;"/><text fill="#000000" font-family="sans-serif" font-size="13" font-style="italic" lengthAdjust="spacing" textLength="155" x="426.5" y="908.4005">When in doubt, leave it out.</text><rect fill="#BCBCBC" filter="url(#fm8zxr4xfk5v)" height="34.4001" rx="12.5" ry="12.5" style="stroke:#383838;stroke-width:1.5;" width="156" x="244.5" y="886.0004"/><text fill="#000000" font-family="sans-serif" font-size="12" lengthAdjust="spacing" textLength="136" x="254.5" y="908.0005">Day-to-day documentation</text><polygon fill="#F8F8F8" filter="url(#fm8zxr4xfk5v)" points="420.5,940.4005,432.5,952.4005,420.5,964.4005,408.5,952.4005,420.5,940.4005" style="stroke:#383838;stroke-width:1.5;"/><ellipse cx="420.5" cy="995.4005" fill="#FFFFFF" filter="url(#fm8zxr4xfk5v)" rx="11" ry="11" style="stroke:#000000;stroke-width:1.0;"/><ellipse cx="420.5" cy="995.4005" fill="#000000" rx="6" ry="6" style="stroke:#7F7F7F;stroke-width:1.0;"/><line style="stroke:#383838;stroke-width:1.5;" x1="284.5" x2="399.5" y1="83.2" y2="83.2"/><line style="stroke:#383838;stroke-width:1.5;" x1="399.5" x2="399.5" y1="83.2" y2="114.2"/><polygon fill="#383838" points="395.5,104.2,399.5,114.2,403.5,104.2,399.5,108.2" style="stroke:#383838;stroke-width:1.0;"/><line style="stroke:#383838;stroke-width:1.5;" x1="241.5" x2="453.5" y1="199.6001" y2="199.6001"/><line style="stroke:#383838;stroke-width:1.5;" x1="453.5" x2="453.5" y1="199.6001" y2="230.6001"/><polygon fill="#383838" points="449.5,220.6001,453.5,230.6001,457.5,220.6001,453.5,224.6001" style="stroke:#383838;stroke-width:1.0;"/><line style="stroke:#383838;stroke-width:1.5;" x1="265" x2="447.5" y1="316.0001" y2="316.0001"/><line style="stroke:#383838;stroke-width:1.5;" x1="447.5" x2="447.5" y1="316.0001" y2="347.0001"/><polygon fill="#383838" points="443.5,337.0001,447.5,347.0001,451.5,337.0001,447.5,341.0001" style="stroke:#383838;stroke-width:1.0;"/><line style="stroke:#383838;stroke-width:1.5;" x1="246.5" x2="446.5" y1="432.4002" y2="432.4002"/><line style="stroke:#383838;stroke-width:1.5;" x1="446.5" x2="446.5" y1="432.4002" y2="455.6002"/><polygon fill="#383838" points="442.5,445.6002,446.5,455.6002,450.5,445.6002,446.5,449.6002" style="stroke:#383838;stroke-width:1.0;"/><line style="stroke:#383838;stroke-width:1.5;" x1="301.5" x2="455.5" y1="533.2002" y2="533.2002"/><line style="stroke:#383838;stroke-width:1.5;" x1="455.5" x2="455.5" y1="533.2002" y2="579.8002"/><polygon fill="#383838" points="451.5,569.8002,455.5,579.8002,459.5,569.8002,455.5,573.8002" style="stroke:#383838;stroke-width:1.0;"/><line style="stroke:#383838;stroke-width:1.5;" x1="337" x2="443.5" y1="680.8003" y2="680.8003"/><line style="stroke:#383838;stroke-width:1.5;" x1="443.5" x2="443.5" y1="680.8003" y2="704.0003"/><polygon fill="#383838" points="439.5,694.0003,443.5,704.0003,447.5,694.0003,443.5,698.0003" style="stroke:#383838;stroke-width:1.0;"/><line style="stroke:#383838;stroke-width:1.5;" x1="263.5" x2="448" y1="781.6004" y2="781.6004"/><line style="stroke:#383838;stroke-width:1.5;" x1="448" x2="448" y1="781.6004" y2="812.6003"/><polygon fill="#383838" points="444,802.6003,448,812.6003,452,802.6003,448,806.6003" style="stroke:#383838;stroke-width:1.0;"/><line style="stroke:#383838;stroke-width:1.5;" x1="178.5" x2="178.5" y1="95.2" y2="187.6001"/><polygon fill="#383838" points="174.5,177.6001,178.5,187.6001,182.5,177.6001,178.5,181.6001" style="stroke:#383838;stroke-width:1.0;"/><line style="stroke:#383838;stroke-width:1.5;" x1="178.5" x2="178.5" y1="211.6001" y2="304.0001"/><polygon fill="#383838" points="174.5,294.0001,178.5,304.0001,182.5,294.0001,178.5,298.0001" style="stroke:#383838;stroke-width:1.0;"/><line style="stroke:#383838;stroke-width:1.5;" x1="178.5" x2="178.5" y1="328.0001" y2="420.4002"/><polygon fill="#383838" points="174.5,410.4002,178.5,420.4002,182.5,410.4002,178.5,414.4002" style="stroke:#383838;stroke-width:1.0;"/><line style="stroke:#383838;stroke-width:1.5;" x1="178.5" x2="178.5" y1="444.4002" y2="521.2002"/><polygon fill="#383838" points="174.5,511.2002,178.5,521.2002,182.5,511.2002,178.5,515.2002" style="stroke:#383838;stroke-width:1.0;"/><line style="stroke:#383838;stroke-width:1.5;" x1="178.5" x2="178.5" y1="545.2002" y2="668.8003"/><polygon fill="#383838" points="174.5,658.8003,178.5,668.8003,182.5,658.8003,178.5,662.8003" style="stroke:#383838;stroke-width:1.0;"/><line style="stroke:#383838;stroke-width:1.5;" x1="178.5" x2="178.5" y1="692.8003" y2="769.6004"/><polygon fill="#383838" points="174.5,759.6004,178.5,769.6004,182.5,759.6004,178.5,763.6004" style="stroke:#383838;stroke-width:1.0;"/><line style="stroke:#383838;stroke-width:1.5;" x1="399.5" x2="399.5" y1="148.6001" y2="163.6001"/><line style="stroke:#383838;stroke-width:1.5;" x1="399.5" x2="821" y1="163.6001" y2="163.6001"/><line style="stroke:#383838;stroke-width:1.5;" x1="821" x2="821" y1="163.6001" y2="952.4005"/><line style="stroke:#383838;stroke-width:1.5;" x1="821" x2="432.5" y1="952.4005" y2="952.4005"/><polygon fill="#383838" points="442.5,948.4005,432.5,952.4005,442.5,956.4005,438.5,952.4005" style="stroke:#383838;stroke-width:1.0;"/><line style="stroke:#383838;stroke-width:1.5;" x1="453.5" x2="453.5" y1="265.0002" y2="280.0002"/><line style="stroke:#383838;stroke-width:1.5;" x1="453.5" x2="821" y1="280.0002" y2="280.0002"/><polygon fill="#383838" points="811,276.0002,821,280.0002,811,284.0002,815,280.0002" style="stroke:#383838;stroke-width:1.0;"/><line style="stroke:#383838;stroke-width:1.5;" x1="447.5" x2="447.5" y1="381.4002" y2="396.4002"/><line style="stroke:#383838;stroke-width:1.5;" x1="447.5" x2="821" y1="396.4002" y2="396.4002"/><polygon fill="#383838" points="811,392.4002,821,396.4002,811,400.4002,815,396.4002" style="stroke:#383838;stroke-width:1.0;"/><line style="stroke:#383838;stroke-width:1.5;" x1="446.5" x2="446.5" y1="490.0003" y2="505.0003"/><line style="stroke:#383838;stroke-width:1.5;" x1="446.5" x2="821" y1="505.0003" y2="505.0003"/><polygon fill="#383838" points="811,501.0003,821,505.0003,811,509.0003,815,505.0003" style="stroke:#383838;stroke-width:1.0;"/><line style="stroke:#383838;stroke-width:1.5;" x1="455.5" x2="455.5" y1="614.2003" y2="629.2003"/><line style="stroke:#383838;stroke-width:1.5;" x1="455.5" x2="821" y1="629.2003" y2="629.2003"/><polygon fill="#383838" points="811,625.2003,821,629.2003,811,633.2003,815,629.2003" style="stroke:#383838;stroke-width:1.0;"/><line style="stroke:#383838;stroke-width:1.5;" x1="443.5" x2="443.5" y1="738.4004" y2="753.4004"/><line style="stroke:#383838;stroke-width:1.5;" x1="443.5" x2="821" y1="753.4004" y2="753.4004"/><polygon fill="#383838" points="811,749.4004,821,753.4004,811,757.4004,815,753.4004" style="stroke:#383838;stroke-width:1.0;"/><line style="stroke:#383838;stroke-width:1.5;" x1="448" x2="448" y1="847.0004" y2="862.0004"/><line style="stroke:#383838;stroke-width:1.5;" x1="448" x2="821" y1="862.0004" y2="862.0004"/><polygon fill="#383838" points="811,858.0004,821,862.0004,811,866.0004,815,862.0004" style="stroke:#383838;stroke-width:1.0;"/><line style="stroke:#383838;stroke-width:1.5;" x1="420.5" x2="420.5" y1="40.6" y2="56.2"/><line style="stroke:#383838;stroke-width:1.5;" x1="420.5" x2="178.5" y1="56.2" y2="56.2"/><line style="stroke:#383838;stroke-width:1.5;" x1="178.5" x2="178.5" y1="56.2" y2="71.2"/><polygon fill="#383838" points="174.5,61.2,178.5,71.2,182.5,61.2,178.5,65.2" style="stroke:#383838;stroke-width:1.0;"/><line style="stroke:#383838;stroke-width:1.5;" x1="178.5" x2="178.5" y1="793.6004" y2="871.0004"/><line style="stroke:#383838;stroke-width:1.5;" x1="178.5" x2="322.5" y1="871.0004" y2="871.0004"/><line style="stroke:#383838;stroke-width:1.5;" x1="322.5" x2="322.5" y1="871.0004" y2="886.0004"/><polygon fill="#383838" points="318.5,876.0004,322.5,886.0004,326.5,876.0004,322.5,880.0004" style="stroke:#383838;stroke-width:1.0;"/><text fill="#000000" font-family="sans-serif" font-size="11" lengthAdjust="spacing" textLength="51" x="178.5" y="839.2004">not exactly</text><line style="stroke:#383838;stroke-width:1.5;" x1="322.5" x2="322.5" y1="920.4005" y2="925.4005"/><line style="stroke:#383838;stroke-width:1.5;" x1="322.5" x2="420.5" y1="925.4005" y2="925.4005"/><line style="stroke:#383838;stroke-width:1.5;" x1="420.5" x2="420.5" y1="925.4005" y2="940.4005"/><polygon fill="#383838" points="416.5,930.4005,420.5,940.4005,424.5,930.4005,420.5,934.4005" style="stroke:#383838;stroke-width:1.0;"/><line style="stroke:#383838;stroke-width:1.5;" x1="420.5" x2="420.5" y1="964.4005" y2="984.4005"/><polygon fill="#383838" points="416.5,974.4005,420.5,984.4005,424.5,974.4005,420.5,978.4005" style="stroke:#383838;stroke-width:1.0;"/><!--MD5=[a7b0e39d454cb865091b98a39db86700]
@startuml
!pragma useVerticalIf on
skinparam monochrome true
skinparam defaulttextalignment center
skinparam legendbackgroundcolor none
hide circle

start
note right
  I have this piece of documentation and
  don't know where to put it.
end note
if (This is a customer specific information?) then (yes)
  #DarkGray:Somewhere else;
note right
    Customer or contract specific documentation
    should either become a (generic) system requirement
    //or// be documented in a dedicated location for
    customer requirements, e.g. a dedicated Antora repository.
end note
elseif (Is still in a draft state?) then (yes)
  #SkyBlue:Day-to-day documentation;
note right
    Only put things in the //system-as-is//
    //documentation// when they are mature
    and reliable enough to be of actual help
    to the reader.
end note
elseif (Describes an event/protocol/..?) then (yes)
  #SkyBlue:Day-to-day documentation;
note right
    Although events documentation, meeting
    protocols, analyses results, .. can
    describe observed and expected system
    behavior, they should be kept separate.
end note
elseif (An idea for the system?) then  (yes)
  #SkyBlue:Day-to-day documentation;
note right
    Ideas and plans change and evolve, many
    will never make it to the system or are
    implemented differently.
end note
elseif (The planned architecture for the //next// release?) then  (yes)
  #SkyBlue:Day-to-day documentation;
note right
    Even if there is a high confidence that
    //this is the way it is going to be//,
    as long as code and documentation di-
    verge it should be put in //day-to-day//.
    Teams can agree on **exceptions** for
    **development branches**.
end note
elseif (The planned architecture for release //has been implemented//?) then  (yes)
  #SteelBlue:System-as-is documentation;
note right
    Moving mature documents from //day-to-day//
    into the //system-as-is// documentation
    is the recommended way.
end note

elseif (Describes the current system?) then  (yes)
  #SteelBlue:System-as-is documentation;
note right
    Changing documentation in //system-as-is//
    should adher to the same standards as
    code , e.g. peer reviewed in a merge
    request.
end note
else (not exactly)
  #SkyBlue:Day-to-day documentation;
note right
    //When in doubt, leave it out.//
end note
endif
stop
@enduml

PlantUML version 1.2021.16(Wed Dec 08 17:25:22 GMT 2021)
(GPL source distribution)
Java Runtime: OpenJDK Runtime Environment
JVM: OpenJDK 64-Bit Server VM
Default Encoding: UTF-8
Language: en
Country: US
--></g></svg>